<?xml version="1.0" encoding="UTF-8"?>
<svg width="50px" height="50px" viewBox="0 0 50 50" version="1.1" xmlns="http://www.w3.org/2000/svg" xmlns:xlink="http://www.w3.org/1999/xlink">
    <!-- Generator: Sketch 64 (93537) - https://sketch.com -->
    <title>Group 9</title>
    <desc>Created with Sketch.</desc>
    <g id="Page-1" stroke="none" stroke-width="1" fill="none" fill-rule="evenodd">
        <g id="Group-9">
            <circle id="Oval-Copy-2" fill="#0B799D" cx="25" cy="25" r="25"></circle>
            <path d="M30.2105263,12 C32.3033948,12 34,13.6966052 34,15.7894737 L34,33.7894737 C34,35.8823422 32.3033948,37.5789474 30.2105263,37.5789474 C28.1176578,37.5789474 26.4210526,35.8823422 26.4210526,33.7894737 L26.4210526,15.7894737 C26.4210526,13.6966052 28.1176578,12 30.2105263,12 Z M19.7894737,12 C21.8823422,12 23.5789474,13.6966052 23.5789474,15.7894737 L23.5789474,33.7894737 C23.5789474,35.8823422 21.8823422,37.5789474 19.7894737,37.5789474 C17.6966052,37.5789474 16,35.8823422 16,33.7894737 L16,15.7894737 C16,13.6966052 17.6966052,12 19.7894737,12 Z" id="Combined-Shape" fill="#FFFFFF"></path>
        </g>
    </g>
</svg>